<mxfile host="app.diagrams.net" agent="Mozilla/5.0 (Windows NT 10.0; Win64; x64) AppleWebKit/537.36 (KHTML, like Gecko) Chrome/134.0.0.0 Safari/537.36" version="26.2.8">
  <diagram name="第 1 页" id="VJuXi4o3o8wnz86NY0X_">
    <mxGraphModel dx="788" dy="505" grid="1" gridSize="10" guides="1" tooltips="1" connect="1" arrows="1" fold="1" page="1" pageScale="1" pageWidth="827" pageHeight="1169" math="0" shadow="0">
      <root>
        <mxCell id="0" />
        <mxCell id="1" parent="0" />
        <mxCell id="2P5a9vyPKrqtF_edIjSG-1" value="&lt;font style=&quot;font-size: 25px;&quot;&gt;MAC&lt;/font&gt;" style="rounded=1;whiteSpace=wrap;html=1;fillColor=#fff2cc;strokeColor=#d6b656;" vertex="1" parent="1">
          <mxGeometry x="200" y="200" width="80" height="40" as="geometry" />
        </mxCell>
        <mxCell id="2P5a9vyPKrqtF_edIjSG-2" value="&lt;span style=&quot;font-size: 25px;&quot;&gt;PHY&lt;/span&gt;" style="rounded=1;whiteSpace=wrap;html=1;fillColor=#d5e8d4;strokeColor=#82b366;" vertex="1" parent="1">
          <mxGeometry x="320" y="200" width="80" height="40" as="geometry" />
        </mxCell>
        <mxCell id="2P5a9vyPKrqtF_edIjSG-3" value="" style="endArrow=none;html=1;rounded=0;exitX=1;exitY=0.5;exitDx=0;exitDy=0;entryX=0;entryY=0.5;entryDx=0;entryDy=0;" edge="1" parent="1" source="2P5a9vyPKrqtF_edIjSG-1" target="2P5a9vyPKrqtF_edIjSG-2">
          <mxGeometry width="50" height="50" relative="1" as="geometry">
            <mxPoint x="380" y="280" as="sourcePoint" />
            <mxPoint x="430" y="230" as="targetPoint" />
          </mxGeometry>
        </mxCell>
        <mxCell id="2P5a9vyPKrqtF_edIjSG-4" value="mdio" style="text;html=1;align=center;verticalAlign=middle;whiteSpace=wrap;rounded=0;" vertex="1" parent="1">
          <mxGeometry x="270" y="220" width="60" height="30" as="geometry" />
        </mxCell>
        <mxCell id="2P5a9vyPKrqtF_edIjSG-5" value="&lt;font style=&quot;font-size: 15px;&quot;&gt;PHY Driver&lt;/font&gt;" style="rounded=1;whiteSpace=wrap;html=1;fillColor=#d5e8d4;strokeColor=#82b366;" vertex="1" parent="1">
          <mxGeometry x="320" y="260" width="80" height="40" as="geometry" />
        </mxCell>
        <mxCell id="2P5a9vyPKrqtF_edIjSG-6" value="" style="endArrow=classic;startArrow=classic;html=1;rounded=0;exitX=0.5;exitY=0;exitDx=0;exitDy=0;entryX=0.5;entryY=1;entryDx=0;entryDy=0;" edge="1" parent="1" source="2P5a9vyPKrqtF_edIjSG-5" target="2P5a9vyPKrqtF_edIjSG-2">
          <mxGeometry width="50" height="50" relative="1" as="geometry">
            <mxPoint x="380" y="280" as="sourcePoint" />
            <mxPoint x="430" y="230" as="targetPoint" />
          </mxGeometry>
        </mxCell>
        <mxCell id="2P5a9vyPKrqtF_edIjSG-13" style="edgeStyle=orthogonalEdgeStyle;rounded=0;orthogonalLoop=1;jettySize=auto;html=1;exitX=1;exitY=0.5;exitDx=0;exitDy=0;entryX=0;entryY=0.5;entryDx=0;entryDy=0;" edge="1" parent="1" source="2P5a9vyPKrqtF_edIjSG-8" target="2P5a9vyPKrqtF_edIjSG-11">
          <mxGeometry relative="1" as="geometry" />
        </mxCell>
        <mxCell id="2P5a9vyPKrqtF_edIjSG-8" value="&lt;font style=&quot;font-size: 15px;&quot;&gt;MAC Driver&lt;/font&gt;" style="rounded=1;whiteSpace=wrap;html=1;fillColor=#fff2cc;strokeColor=#d6b656;" vertex="1" parent="1">
          <mxGeometry x="200" y="140" width="80" height="40" as="geometry" />
        </mxCell>
        <mxCell id="2P5a9vyPKrqtF_edIjSG-9" value="" style="endArrow=classic;startArrow=classic;html=1;rounded=0;entryX=0.5;entryY=1;entryDx=0;entryDy=0;" edge="1" parent="1" source="2P5a9vyPKrqtF_edIjSG-1" target="2P5a9vyPKrqtF_edIjSG-8">
          <mxGeometry width="50" height="50" relative="1" as="geometry">
            <mxPoint x="304" y="270" as="sourcePoint" />
            <mxPoint x="304" y="250" as="targetPoint" />
          </mxGeometry>
        </mxCell>
        <mxCell id="2P5a9vyPKrqtF_edIjSG-10" value="map" style="text;html=1;align=center;verticalAlign=middle;whiteSpace=wrap;rounded=0;" vertex="1" parent="1">
          <mxGeometry x="355" y="235" width="60" height="30" as="geometry" />
        </mxCell>
        <mxCell id="2P5a9vyPKrqtF_edIjSG-14" style="edgeStyle=orthogonalEdgeStyle;rounded=0;orthogonalLoop=1;jettySize=auto;html=1;exitX=1;exitY=0.5;exitDx=0;exitDy=0;entryX=0;entryY=0.5;entryDx=0;entryDy=0;" edge="1" parent="1" source="2P5a9vyPKrqtF_edIjSG-11" target="2P5a9vyPKrqtF_edIjSG-12">
          <mxGeometry relative="1" as="geometry" />
        </mxCell>
        <mxCell id="2P5a9vyPKrqtF_edIjSG-11" value="&lt;span style=&quot;font-size: 15px;&quot;&gt;phy_get&lt;/span&gt;" style="rounded=1;whiteSpace=wrap;html=1;fillColor=#dae8fc;strokeColor=#6c8ebf;" vertex="1" parent="1">
          <mxGeometry x="320" y="140" width="80" height="40" as="geometry" />
        </mxCell>
        <mxCell id="2P5a9vyPKrqtF_edIjSG-12" value="&lt;font style=&quot;font-size: 15px;&quot;&gt;phy_init&lt;/font&gt;&lt;div&gt;&lt;font style=&quot;font-size: 15px;&quot;&gt;phy_power_on&lt;/font&gt;&lt;/div&gt;" style="rounded=1;whiteSpace=wrap;html=1;fillColor=#dae8fc;strokeColor=#6c8ebf;" vertex="1" parent="1">
          <mxGeometry x="440" y="140" width="80" height="40" as="geometry" />
        </mxCell>
      </root>
    </mxGraphModel>
  </diagram>
</mxfile>
